<?xml version="1.0" encoding="utf-8"?>
<!-- Generator: Adobe Illustrator 16.0.0, SVG Export Plug-In . SVG Version: 6.00 Build 0)  -->
<!DOCTYPE svg PUBLIC "-//W3C//DTD SVG 1.1//EN" "http://www.w3.org/Graphics/SVG/1.1/DTD/svg11.dtd">
<svg version="1.1" id="Layer_1" xmlns="http://www.w3.org/2000/svg" xmlns:xlink="http://www.w3.org/1999/xlink" x="0px" y="0px"
	 width="20px" height="20px" viewBox="0 0 20 20" enable-background="new 0 0 20 20" xml:space="preserve">
<g>
	<polygon fill="#0076BC" points="16.629,14.995 16.582,14.995 16.521,15.109 16.36,15.306 16.175,15.461 15.999,15.559 
		15.969,15.671 15.901,15.754 15.931,15.935 15.896,16.074 15.798,16.172 15.688,16.321 15.607,16.44 15.652,16.517 15.601,16.643 
		15.74,16.75 16.021,16.626 16.17,16.389 16.413,15.96 16.599,15.599 16.79,15.242 16.77,14.743 	"/>
	<g>
		<path fill="#0076BC" d="M9.992,0.02 M9.942,0.006 M9.942,0.006c-0.144-0.04-1.726,0.118-1.696,0.168
			C8.182,0.187,8.119,0.199,8.055,0.213C7.937,0.236,7.818,0.261,7.699,0.289C7.597,0.313,7.497,0.338,7.396,0.365
			C7.331,0.382,7.267,0.402,7.201,0.421c-0.103,0.03-0.207,0.062-0.308,0.095C6.844,0.531,6.794,0.548,6.745,0.565
			c-0.151,0.052-0.301,0.108-0.45,0.167C6.263,0.744,6.229,0.758,6.197,0.772c-0.131,0.054-0.26,0.11-0.388,0.168
			C5.788,0.951,5.766,0.959,5.744,0.97C5.731,0.976,5.718,0.983,5.705,0.99c-0.14,0.066-0.276,0.132-0.41,0.205
			C5.269,1.208,5.243,1.224,5.218,1.238C5.114,1.293,5.012,1.352,4.911,1.412C4.85,1.448,4.789,1.485,4.728,1.522
			c-0.061,0.038-0.12,0.076-0.18,0.114C4.477,1.683,4.405,1.729,4.335,1.777C4.302,1.8,4.27,1.824,4.236,1.847
			C3.958,2.042,3.691,2.251,3.439,2.47C3.422,2.485,3.404,2.501,3.387,2.516C3.3,2.591,3.216,2.667,3.133,2.746
			c-0.011,0.01-0.021,0.02-0.031,0.029C2.844,3.021,2.601,3.278,2.373,3.546C2.354,3.568,2.336,3.59,2.317,3.612
			C2.254,3.688,2.194,3.764,2.134,3.84C2.103,3.878,2.073,3.918,2.043,3.958C1.989,4.029,1.936,4.1,1.883,4.171
			C1.848,4.222,1.813,4.272,1.777,4.324C1.732,4.391,1.686,4.456,1.642,4.522C1.566,4.635,1.495,4.749,1.426,4.865
			c-0.03,0.049-0.057,0.1-0.084,0.148c-0.046,0.079-0.092,0.159-0.136,0.24C1.176,5.307,1.148,5.361,1.12,5.416
			C1.079,5.494,1.039,5.573,1,5.653c-0.026,0.054-0.052,0.11-0.078,0.164C0.885,5.902,0.847,5.985,0.81,6.07
			C0.79,6.122,0.766,6.173,0.746,6.225C0.736,6.244,0.729,6.263,0.72,6.283c0.001-0.002,0.003-0.003,0.004-0.005
			C0.411,7.055,0.194,7.87,0.084,8.705l0,0C0.08,8.736,0.077,8.768,0.074,8.799C0.056,8.947,0.04,9.096,0.028,9.247
			C0.024,9.289,0.023,9.332,0.021,9.374C0.012,9.516,0.004,9.657,0.001,9.8c0,0.041,0,0.082,0,0.121
			c-0.002,0.144,0,0.289,0.005,0.434c0.001,0.036,0.003,0.075,0.005,0.11c0.006,0.15,0.016,0.296,0.03,0.444
			c0.002,0.034,0.005,0.065,0.01,0.099c0.015,0.15,0.033,0.302,0.055,0.449c0.005,0.033,0.009,0.063,0.015,0.097
			c0.023,0.147,0.049,0.296,0.08,0.444c0.007,0.034,0.014,0.068,0.021,0.103c0.03,0.14,0.064,0.279,0.101,0.42
			c0.012,0.039,0.021,0.081,0.032,0.12c0.035,0.129,0.074,0.256,0.114,0.384c0.017,0.051,0.032,0.102,0.048,0.151
			c0.038,0.112,0.079,0.224,0.121,0.336c0.024,0.063,0.046,0.127,0.072,0.19c0.037,0.096,0.08,0.19,0.12,0.286
			c0.034,0.075,0.063,0.149,0.099,0.223c0.007,0.015,0.013,0.029,0.02,0.048c0.062,0.128,0.125,0.255,0.192,0.382
			c0.014,0.028,0.028,0.053,0.041,0.078c0.074,0.137,0.15,0.272,0.229,0.404c0.009,0.015,0.017,0.03,0.027,0.045
			c0.094,0.156,0.192,0.31,0.293,0.458v0.001C3.617,18.406,6.751,20,10.004,20c1.426,0,2.872-0.305,4.247-0.95
			c4.709-2.209,6.887-7.617,5.16-12.411c-0.017-0.04-0.031-0.08-0.046-0.119c-0.054-0.142-0.11-0.286-0.171-0.428
			c-0.027-0.063-0.056-0.127-0.085-0.19c-0.021-0.046-0.039-0.093-0.062-0.139c-0.054-0.117-0.11-0.231-0.169-0.344
			c-0.005-0.011-0.014-0.022-0.018-0.033c-0.094-0.177-0.191-0.349-0.292-0.519c-0.007-0.01-0.013-0.022-0.018-0.032
			c-0.11-0.18-0.224-0.355-0.342-0.525c-0.003-0.005-0.007-0.008-0.009-0.012c-0.75-1.077-1.688-1.97-2.749-2.658
			c-0.005-0.004-0.011-0.008-0.018-0.012c-0.173-0.11-0.347-0.217-0.525-0.317c-0.015-0.008-0.029-0.017-0.046-0.024
			c-0.174-0.098-0.352-0.189-0.532-0.276c-0.017-0.008-0.034-0.016-0.052-0.024c-0.183-0.086-0.366-0.167-0.554-0.242
			c-0.012-0.005-0.022-0.009-0.034-0.013c-0.188-0.075-0.383-0.146-0.576-0.209c-0.007-0.002-0.015-0.005-0.021-0.007
			c-0.201-0.065-0.405-0.124-0.61-0.176c-0.006-0.002-0.013-0.005-0.021-0.007l0,0c-0.234-0.059-0.846-0.198-1.082-0.24
			C11.391,0.064,9.938,0.036,9.942,0.006 M14.08,18.688c-1.29,0.606-2.66,0.913-4.074,0.913c-2.948,0-5.708-1.367-7.508-3.612
			c-0.025-0.068-0.051-0.135-0.077-0.201c0.11,0.013,0.22,0.025,0.331,0.039c0.06-0.02,0.121-0.038,0.182-0.058
			c0.02-0.128,0.042-0.26,0.063-0.392c-0.016-0.156-0.032-0.314-0.047-0.473c-0.029-0.074-0.058-0.152-0.086-0.228
			c0.039-0.026,0.079-0.052,0.117-0.078c0.019-0.075,0.037-0.148,0.056-0.222c0.058-0.039,0.116-0.078,0.172-0.118
			c0.008-0.132,0.017-0.268,0.023-0.4c-0.034-0.077-0.068-0.151-0.103-0.229c-0.075-0.04-0.151-0.084-0.228-0.127
			c-0.077-0.128-0.153-0.26-0.229-0.392c-0.103-0.059-0.205-0.116-0.308-0.175c-0.121-0.073-0.242-0.146-0.362-0.22
			c-0.068-0.122-0.137-0.245-0.205-0.369c-0.1-0.125-0.199-0.252-0.3-0.378c0-0.122,0-0.24,0-0.361
			c-0.034-0.11-0.068-0.221-0.103-0.332c-0.093-0.143-0.188-0.288-0.283-0.431c-0.068-0.171-0.137-0.342-0.205-0.511
			c-0.025-0.173-0.052-0.347-0.078-0.52C0.8,9.703,0.771,9.591,0.743,9.478C0.652,9.284,0.561,9.09,0.47,8.895
			C0.512,8.536,0.575,8.18,0.658,7.829l0.11,0.31l0.16,0.239l0.124,0.066l-0.14-0.305L0.81,7.779L0.805,7.44L0.792,7.326
			c0.246-0.843,0.606-1.65,1.072-2.398C1.942,4.87,2.02,4.813,2.097,4.755c0.097-0.088,0.192-0.178,0.29-0.268
			c0.142-0.055,0.286-0.111,0.429-0.165c0.079-0.034,0.158-0.066,0.238-0.098C3.061,4.279,3.07,4.334,3.079,4.39
			c0.079,0.001,0.158,0.003,0.238,0.004c0.113-0.037,0.227-0.075,0.34-0.113c-0.104-0.038-0.21-0.076-0.314-0.114
			C3.411,4.105,3.48,4.044,3.548,3.981C3.604,3.924,3.659,3.868,3.714,3.81C3.69,3.751,3.666,3.69,3.642,3.63
			C3.707,3.624,3.773,3.617,3.838,3.61C3.912,3.678,3.986,3.747,4.06,3.817C4.138,3.814,4.215,3.813,4.293,3.81
			C4.364,3.808,4.434,3.805,4.504,3.8C4.557,3.709,4.608,3.618,4.66,3.527C4.696,3.397,4.731,3.269,4.768,3.14
			c0.168-0.206,0.338-0.414,0.507-0.619C5.155,2.551,5.036,2.582,4.918,2.613c0.087-0.11,0.176-0.22,0.262-0.33
			c0.062-0.097,0.122-0.193,0.182-0.29C5.262,2.04,5.162,2.083,5.062,2.128c-0.144,0.111-0.29,0.221-0.434,0.332
			C4.516,2.511,4.403,2.563,4.291,2.613C4.135,2.675,3.979,2.738,3.822,2.799c0.146-0.125,0.293-0.251,0.439-0.376
			c0.038-0.061,0.074-0.122,0.112-0.181C4.75,1.969,5.152,1.721,5.577,1.5C5.645,1.509,5.712,1.517,5.78,1.524
			C5.79,1.596,5.798,1.669,5.807,1.742C5.751,1.835,5.697,1.93,5.642,2.025C5.597,2.104,5.551,2.184,5.507,2.262
			c0.125,0.002,0.252,0.004,0.378,0.005c0.134-0.071,0.269-0.141,0.403-0.211c0.155-0.072,0.31-0.145,0.464-0.216
			c0.139-0.061,0.276-0.121,0.414-0.181c-0.053-0.031-0.106-0.063-0.16-0.093C7,1.513,6.995,1.459,6.99,1.405
			c0.058-0.066,0.117-0.134,0.176-0.201C7.196,1.137,7.228,1.07,7.259,1.002c0.046,0.042,0.093,0.083,0.139,0.125
			C7.42,1.098,7.443,1.068,7.465,1.039C7.518,1.056,7.572,1.073,7.625,1.09C7.719,1.1,7.814,1.107,7.909,1.117
			C7.846,1.2,7.782,1.285,7.718,1.369C7.682,1.41,7.646,1.452,7.609,1.493C7.538,1.579,7.465,1.666,7.392,1.751
			c-0.114,0.1-0.23,0.199-0.345,0.298C6.971,2.074,6.896,2.099,6.82,2.123C6.74,2.204,6.66,2.284,6.581,2.366
			C6.502,2.406,6.423,2.448,6.344,2.489C6.262,2.572,6.179,2.655,6.096,2.738c-0.039,0.066-0.079,0.13-0.119,0.196
			c0.021,0.021,0.042,0.041,0.063,0.062c-0.015,0.05-0.031,0.099-0.046,0.15C6.044,3.17,6.096,3.197,6.146,3.224
			C6.2,3.178,6.253,3.134,6.307,3.089C6.38,3.043,6.454,2.997,6.528,2.95C6.616,2.896,6.705,2.843,6.791,2.79
			c0.094-0.01,0.188-0.02,0.28-0.031c0.112-0.038,0.223-0.076,0.335-0.113c0.058-0.037,0.114-0.072,0.171-0.108
			C7.634,2.55,7.691,2.565,7.748,2.578c0.144-0.023,0.286-0.045,0.429-0.067c0.057-0.04,0.113-0.08,0.171-0.12
			c0.068-0.07,0.137-0.14,0.206-0.21c0.101-0.093,0.2-0.186,0.301-0.279C8.91,1.839,8.968,1.778,9.025,1.715
			c0.075-0.07,0.151-0.14,0.227-0.21c0.062-0.024,0.122-0.048,0.181-0.073C9.394,1.358,9.356,1.285,9.318,1.21
			c0.077,0.041,0.155,0.08,0.232,0.12c0.14,0.022,0.279,0.044,0.418,0.067c0.134-0.003,0.269-0.006,0.404-0.011
			c0.168-0.029,0.336-0.059,0.507-0.088c0.042-0.054,0.086-0.109,0.129-0.164c0.094,0.023,0.188,0.048,0.284,0.072
			c0.044-0.003,0.09-0.006,0.134-0.011C11.419,1.125,11.41,1.054,11.4,0.984c0.056-0.036,0.111-0.072,0.166-0.108
			c0.08-0.029,0.16-0.059,0.242-0.088c0.094,0.004,0.19,0.007,0.284,0.01c0.005-0.042,0.01-0.083,0.015-0.125
			c-0.008-0.006-0.016-0.013-0.024-0.02c0.185,0.041,0.366,0.088,0.546,0.139c-0.009,0.029-0.015,0.059-0.021,0.088
			c-0.049-0.027-0.096-0.056-0.144-0.083c-0.093,0.02-0.184,0.039-0.276,0.059c0.026,0.069,0.051,0.14,0.076,0.209
			c0.112,0.116,0.225,0.231,0.339,0.348C12.598,1.508,12.595,1.603,12.59,1.7c0.079,0.063,0.159,0.125,0.237,0.188
			c-0.059,0.096-0.117,0.192-0.176,0.289c0.039,0.007,0.076,0.014,0.114,0.021c0.034,0.041,0.069,0.082,0.104,0.121
			c-0.101,0.029-0.2,0.059-0.301,0.088c-0.036,0.085-0.07,0.17-0.104,0.255c-0.035,0.027-0.071,0.053-0.105,0.08
			c-0.052,0.037-0.105,0.073-0.158,0.108c-0.042-0.032-0.084-0.063-0.127-0.096c-0.032-0.027-0.066-0.053-0.101-0.079
			c-0.059-0.019-0.117-0.037-0.176-0.055c-0.088-0.006-0.175-0.014-0.263-0.021c-0.046-0.007-0.091-0.014-0.137-0.021
			c-0.027-0.003-0.054-0.007-0.08-0.012c-0.029-0.027-0.062-0.056-0.091-0.083c-0.054,0-0.107,0-0.159,0
			c-0.059,0.012-0.118,0.022-0.176,0.034c-0.065,0.016-0.128,0.032-0.192,0.049c-0.046,0.056-0.091,0.112-0.134,0.168
			c-0.029,0.062-0.057,0.125-0.084,0.188c-0.036,0.047-0.07,0.095-0.106,0.142c-0.054,0.056-0.108,0.114-0.163,0.171
			c-0.052,0.034-0.103,0.068-0.155,0.1C10.002,3.4,9.945,3.466,9.891,3.531C9.831,3.585,9.77,3.639,9.71,3.695
			C9.701,3.747,9.691,3.8,9.681,3.854c0.005,0.042,0.008,0.083,0.013,0.125C9.706,4.02,9.716,4.059,9.728,4.1
			c0.02,0.032,0.039,0.066,0.059,0.1c0.029,0.015,0.059,0.03,0.088,0.046c0.05-0.024,0.1-0.048,0.15-0.072
			c0.003-0.035,0.006-0.07,0.008-0.104c0.067-0.016,0.134-0.031,0.201-0.046c0.003,0.025,0.005,0.049,0.008,0.076
			c0.031,0.055,0.063,0.11,0.093,0.167c0.023,0.039,0.048,0.078,0.072,0.117c-0.005,0.024-0.009,0.046-0.014,0.071
			c0.002,0.034,0.005,0.07,0.009,0.104c0.047,0.007,0.096,0.015,0.146,0.021c0.027-0.025,0.059-0.05,0.086-0.075
			c0.052-0.036,0.101-0.071,0.151-0.105c-0.015-0.045-0.031-0.09-0.047-0.134c-0.005-0.044-0.01-0.089-0.017-0.134
			c0.075-0.03,0.148-0.062,0.223-0.092C10.917,4,10.891,3.96,10.865,3.919c-0.051-0.029-0.101-0.059-0.151-0.087
			c0.003-0.088,0.005-0.179,0.008-0.268c0.062-0.049,0.121-0.097,0.181-0.146c0.018-0.055,0.036-0.109,0.054-0.163
			c0.026-0.044,0.054-0.087,0.08-0.129c0.063,0,0.129,0.002,0.192,0.003c0.01,0.048,0.02,0.095,0.029,0.144
			c-0.054,0.042-0.109,0.085-0.165,0.129c-0.016,0.052-0.032,0.105-0.049,0.159c0.028,0.066,0.056,0.134,0.083,0.2
			c0.028,0.04,0.054,0.079,0.08,0.117c0.076-0.004,0.151-0.008,0.227-0.012c0.037-0.039,0.074-0.078,0.113-0.117
			c0.085,0.02,0.169,0.039,0.253,0.059c-0.001,0.021-0.003,0.042-0.005,0.063c-0.032,0.017-0.066,0.035-0.099,0.054
			C11.627,3.949,11.557,3.974,11.487,4c-0.051,0.012-0.1,0.024-0.15,0.037c-0.025,0.044-0.05,0.09-0.076,0.134
			c0.018,0.02,0.037,0.042,0.056,0.062c-0.033,0.012-0.065,0.024-0.097,0.034c0.01,0.065,0.019,0.131,0.029,0.197
			c0.024,0.042,0.049,0.083,0.073,0.125c-0.059,0.04-0.117,0.078-0.176,0.117c-0.034,0.008-0.069,0.017-0.104,0.025
			c-0.021-0.02-0.044-0.039-0.067-0.059c-0.016,0.012-0.032,0.022-0.05,0.034c-0.034,0.024-0.07,0.047-0.104,0.071
			c-0.038,0.017-0.077,0.036-0.114,0.054c-0.013,0.031-0.027,0.062-0.041,0.092c-0.033-0.029-0.065-0.056-0.096-0.083
			c-0.021-0.034-0.042-0.068-0.063-0.101c-0.024,0.025-0.049,0.05-0.075,0.075c-0.067-0.005-0.136-0.01-0.204-0.016
			c-0.024-0.038-0.049-0.075-0.073-0.113c0.015-0.045,0.029-0.091,0.043-0.137c0.017-0.041,0.036-0.081,0.054-0.122
			c-0.029-0.042-0.059-0.086-0.088-0.129C10.133,4.325,10.1,4.352,10.067,4.38c-0.032,0.038-0.066,0.075-0.1,0.113
			c0.021,0.071,0.041,0.142,0.063,0.212c0.002,0.049,0.005,0.098,0.007,0.146c-0.041,0.015-0.083,0.03-0.125,0.046
			c-0.053,0-0.105,0-0.159,0C9.722,4.92,9.691,4.942,9.657,4.964C9.63,5.011,9.602,5.057,9.574,5.103
			C9.536,5.135,9.499,5.167,9.461,5.199C9.396,5.222,9.33,5.246,9.265,5.27C9.26,5.304,9.256,5.336,9.252,5.37
			C9.203,5.397,9.154,5.426,9.105,5.453c-0.005,0.02-0.008,0.039-0.013,0.059C9.022,5.504,8.951,5.495,8.88,5.487
			C8.871,5.519,8.863,5.551,8.855,5.583c-0.027,0.01-0.053,0.02-0.079,0.029c-0.054-0.02-0.107-0.039-0.16-0.059
			C8.57,5.577,8.524,5.602,8.479,5.624C8.5,5.648,8.52,5.672,8.541,5.696c0.071,0.026,0.143,0.052,0.213,0.079
			c0.01,0.044,0.02,0.086,0.029,0.129C8.809,5.929,8.834,5.956,8.859,5.98C8.852,6.009,8.845,6.039,8.839,6.068
			C8.827,6.15,8.813,6.231,8.801,6.314c-0.029,0.033-0.059,0.066-0.088,0.1C8.64,6.417,8.565,6.42,8.49,6.422
			C8.378,6.4,8.265,6.378,8.152,6.356C8.084,6.363,8.016,6.37,7.947,6.376C7.908,6.427,7.869,6.477,7.83,6.527
			C7.775,6.598,7.722,6.669,7.667,6.74C7.674,6.801,7.68,6.864,7.688,6.925C7.673,6.979,7.658,7.033,7.641,7.086
			C7.66,7.145,7.678,7.204,7.696,7.263C7.728,7.294,7.76,7.327,7.792,7.359c0.061,0.015,0.121,0.03,0.181,0.044
			c0.001,0.051,0.003,0.102,0.003,0.151c0.026,0.016,0.05,0.03,0.075,0.046C8.104,7.577,8.155,7.555,8.207,7.53
			c0.115-0.002,0.229-0.002,0.342-0.004c0.027-0.016,0.053-0.033,0.08-0.049c0.046-0.032,0.093-0.064,0.138-0.097
			c0.026-0.028,0.054-0.056,0.08-0.083c-0.02-0.051-0.039-0.103-0.059-0.154c0.01-0.052,0.02-0.104,0.029-0.156
			c0.05-0.057,0.101-0.113,0.151-0.171c0.067-0.022,0.134-0.044,0.2-0.066C9.203,6.696,9.239,6.642,9.273,6.59
			c0.007-0.037,0.014-0.073,0.021-0.109c0.058-0.013,0.114-0.027,0.172-0.042c0.057,0.019,0.113,0.037,0.171,0.054
			C9.73,6.459,9.823,6.424,9.916,6.389c0.068-0.021,0.135-0.041,0.204-0.061c0.036,0.016,0.072,0.032,0.109,0.047
			c0.015,0.037,0.031,0.074,0.047,0.111c0.045,0.047,0.089,0.094,0.136,0.143c0.041,0.04,0.081,0.079,0.122,0.119
			c0.062,0.025,0.122,0.052,0.182,0.077c0.05,0.028,0.103,0.054,0.153,0.083c0.038,0.028,0.075,0.058,0.112,0.087
			c0.023,0.04,0.048,0.079,0.07,0.119c-0.003,0.035-0.005,0.07-0.01,0.105c-0.013,0.025-0.024,0.051-0.037,0.075
			c0.015,0.022,0.029,0.046,0.044,0.071c0.021-0.02,0.04-0.041,0.062-0.061c0.022-0.034,0.047-0.065,0.071-0.098
			c0.01-0.022,0.02-0.044,0.029-0.065c-0.011-0.02-0.024-0.042-0.037-0.064c-0.018-0.019-0.037-0.039-0.057-0.058
			c0.01-0.017,0.022-0.032,0.034-0.049c0.008-0.014,0.018-0.028,0.027-0.041c0.031,0.02,0.062,0.041,0.095,0.061
			c0.013,0.019,0.025,0.039,0.04,0.057c0.017-0.014,0.036-0.028,0.054-0.041c-0.032-0.034-0.064-0.068-0.098-0.102
			c-0.04-0.027-0.081-0.056-0.123-0.083c-0.039-0.031-0.08-0.061-0.121-0.092c-0.021,0.002-0.044,0.002-0.065,0.004
			c-0.044-0.014-0.089-0.028-0.135-0.042c-0.027-0.036-0.057-0.072-0.086-0.108c-0.023-0.047-0.049-0.094-0.072-0.143
			c-0.038-0.016-0.075-0.033-0.109-0.05c-0.021-0.038-0.044-0.077-0.065-0.116c0.007-0.015,0.015-0.029,0.021-0.044
			c-0.013-0.022-0.023-0.044-0.034-0.066c0.013-0.017,0.027-0.034,0.041-0.051c0.039-0.01,0.077-0.019,0.114-0.027
			c0.033,0.022,0.063,0.044,0.095,0.066c0.026,0.034,0.05,0.066,0.075,0.099c0.028,0.035,0.055,0.07,0.082,0.105
			c0.031,0.025,0.062,0.05,0.093,0.074c0.036,0.012,0.071,0.025,0.109,0.037c0.02,0.024,0.037,0.048,0.057,0.071
			c0.063,0.015,0.127,0.029,0.19,0.044c0.032,0.051,0.066,0.1,0.101,0.15c-0.011,0.04-0.022,0.082-0.034,0.121
			c0.031,0.032,0.061,0.063,0.092,0.095c0.047,0.036,0.093,0.07,0.14,0.105c0.06,0.009,0.121,0.018,0.182,0.027
			c0.021,0.04,0.042,0.08,0.064,0.12c0.082,0.036,0.165,0.071,0.248,0.107c0.013-0.032,0.029-0.064,0.044-0.098
			c-0.053-0.035-0.103-0.07-0.153-0.105c-0.02-0.035-0.041-0.07-0.062-0.105c-0.014-0.032-0.026-0.064-0.041-0.098
			c0.037-0.043,0.075-0.085,0.112-0.129c0.054-0.004,0.105-0.008,0.159-0.013c0.048,0,0.095,0,0.144,0
			c0.049-0.02,0.098-0.041,0.149-0.061c0.02-0.022,0.043-0.046,0.063-0.068c-0.044-0.091-0.091-0.181-0.137-0.271
			c0.075-0.034,0.15-0.065,0.225-0.098c0.098-0.071,0.195-0.142,0.292-0.214c0.071,0.007,0.143,0.014,0.213,0.02
			c0.059-0.044,0.117-0.09,0.176-0.135c0.086,0.005,0.174,0.012,0.262,0.02c0.092,0.042,0.183,0.083,0.272,0.125
			c0.068,0.043,0.137,0.085,0.205,0.127c0,0.058,0,0.117,0,0.175C13.994,6.4,13.94,6.423,13.884,6.446
			c-0.073,0.015-0.148,0.032-0.224,0.047c-0.078-0.027-0.154-0.057-0.232-0.086c-0.091-0.007-0.183-0.013-0.273-0.02
			c-0.054,0.049-0.109,0.096-0.164,0.145c-0.065,0.02-0.131,0.039-0.194,0.059c-0.068,0.036-0.137,0.071-0.205,0.107
			c-0.078,0.036-0.154,0.07-0.232,0.106c0.005,0.065,0.012,0.13,0.018,0.194c0.068,0.065,0.137,0.129,0.205,0.195
			c0.07,0.083,0.142,0.168,0.214,0.252c0.062-0.015,0.123-0.032,0.186-0.047c0.022-0.041,0.045-0.08,0.068-0.118
			c0.042,0.033,0.084,0.065,0.125,0.098c0.088-0.014,0.176-0.026,0.262-0.04c0.029-0.039,0.061-0.076,0.088-0.116
			c0.092,0.006,0.183,0.013,0.273,0.021c-0.008,0.05-0.016,0.1-0.024,0.151c-0.001,0.134-0.005,0.269-0.008,0.403
			c0.012,0.09,0.022,0.183,0.034,0.274c0.029,0.007,0.059,0.015,0.088,0.021c0,0,0,0,0,0.001l-0.088-0.021l-0.12,0.122l-0.217,0.069
			l0.076,0.132l0.285,0.4l0.056-0.012l0.022-0.249l0.018-0.276l-0.032-0.163c0.022,0.083,0.044,0.166,0.066,0.249
			c-0.013,0.049-0.024,0.1-0.037,0.15c0.007,0.074,0.013,0.148,0.02,0.223c0.034,0.022,0.066,0.044,0.098,0.067
			c0.068,0.08,0.137,0.162,0.205,0.243c0.059,0.083,0.117,0.168,0.174,0.251c0.043,0.026,0.085,0.053,0.127,0.078
			c0.049,0.101,0.098,0.201,0.146,0.303c0.049,0.071,0.098,0.142,0.146,0.212c0.064,0.027,0.128,0.051,0.195,0.078
			c0.035,0.064,0.069,0.128,0.105,0.193c0.075,0.078,0.149,0.156,0.223,0.234c0.1,0.238,0.197,0.476,0.295,0.713
			c0.168-0.123,0.337-0.246,0.506-0.368c0.136-0.13,0.271-0.26,0.407-0.389c0.046-0.045,0.091-0.089,0.137-0.137
			c0.007-0.066,0.013-0.135,0.02-0.203c0.062-0.059,0.122-0.117,0.184-0.174c0.043-0.041,0.085-0.08,0.127-0.117
			c0.017-0.078,0.033-0.156,0.049-0.234c0.039-0.032,0.078-0.063,0.117-0.097c-0.022-0.067-0.047-0.135-0.068-0.203
			c0.033-0.082,0.065-0.162,0.098-0.244c0.012-0.068,0.026-0.137,0.038-0.203c-0.068-0.049-0.136-0.098-0.204-0.146
			c-0.052,0.009-0.104,0.019-0.156,0.029c-0.042-0.029-0.083-0.059-0.125-0.087c-0.042-0.097-0.085-0.194-0.127-0.291
			c-0.029,0.098-0.059,0.195-0.088,0.291c-0.032,0.061-0.065,0.124-0.098,0.185c-0.054,0.029-0.109,0.059-0.164,0.086
			c-0.033-0.012-0.065-0.025-0.098-0.037c-0.004-0.043-0.007-0.085-0.009-0.127c-0.018-0.056-0.034-0.11-0.05-0.165
			c-0.023,0.016-0.046,0.033-0.067,0.048c0,0.046,0,0.09,0,0.136c-0.029-0.036-0.059-0.073-0.088-0.107
			c-0.045-0.054-0.091-0.109-0.137-0.165c-0.081-0.075-0.161-0.15-0.242-0.224c-0.013-0.065-0.026-0.129-0.039-0.193
			c0.059-0.034,0.117-0.066,0.176-0.099c0.07,0.072,0.142,0.143,0.213,0.213c0.029,0.042,0.059,0.085,0.088,0.127
			c0.039-0.004,0.078-0.007,0.116-0.01c0.059,0.032,0.117,0.064,0.176,0.098c0.039,0,0.076,0,0.115,0
			c0.052-0.065,0.105-0.129,0.156-0.195c0.032-0.003,0.063-0.006,0.096-0.01c0.034,0.069,0.065,0.137,0.098,0.205
			c0.131-0.039,0.259-0.078,0.39-0.117c0.091-0.049,0.182-0.098,0.271-0.146c0.062-0.038,0.124-0.076,0.186-0.115
			c0.007-0.004,0.013-0.007,0.02-0.01c0.065,0.062,0.13,0.122,0.194,0.184c0.068,0.022,0.137,0.046,0.205,0.068
			c0.049-0.04,0.098-0.079,0.146-0.117c0.063,0.068,0.128,0.137,0.193,0.205c0.078,0.181,0.154,0.361,0.232,0.544
			c0.072,0.132,0.144,0.264,0.215,0.397c0.082,0.143,0.161,0.285,0.242,0.428c0.046,0.139,0.092,0.278,0.137,0.417
			c0.02-0.144,0.039-0.285,0.059-0.427c-0.008-0.227-0.014-0.454-0.02-0.681c-0.049-0.093-0.098-0.188-0.146-0.281
			c0.023-0.154,0.046-0.311,0.068-0.466c-0.025-0.191-0.052-0.383-0.078-0.574c-0.01-0.105-0.02-0.213-0.029-0.32
			c0.019-0.053,0.036-0.106,0.055-0.159C20.581,11.624,18.481,16.623,14.08,18.688z"/>
		<polygon fill="#0076BC" points="8.19,3.265 8.397,3.29 8.588,3.239 8.805,3.171 8.723,2.97 8.578,2.96 8.402,2.939 8.211,2.914 
			8.118,2.992 8.17,3.084 8.103,3.192 		"/>
		<polygon fill="#0076BC" points="8.636,4.654 8.548,4.688 8.531,4.811 8.476,4.851 8.466,4.911 8.405,4.959 8.392,5.064 
			8.446,5.087 8.632,5.04 8.751,5.006 8.836,4.892 8.879,4.762 8.941,4.691 8.859,4.54 8.718,4.515 		"/>
		<polygon fill="#0076BC" points="9.01,4.574 9.12,4.662 9.191,4.796 9.094,4.872 9.026,4.872 9.032,5.006 8.954,5.043 8.921,5.102 
			8.978,5.176 8.827,5.353 8.947,5.301 9.016,5.321 9.138,5.26 9.345,5.26 9.558,5.24 9.62,5.186 9.579,5.116 9.67,5.03 
			9.564,4.945 9.486,4.83 9.437,4.712 9.369,4.635 9.362,4.557 9.274,4.479 9.287,4.386 9.376,4.322 9.392,4.2 9.386,4.049 
			8.988,4.079 8.941,4.264 8.968,4.424 		"/>
		<polygon fill="#0076BC" points="13.332,8.365 12.725,8.304 12.176,8.187 12.072,8.334 12.117,8.527 11.938,8.631 11.539,8.497 
			11.317,8.334 10.769,8.126 10.636,8.009 10.784,7.58 10.561,7.521 10.37,7.624 10.013,7.565 9.494,7.565 9.139,7.713 8.828,7.848 
			8.576,7.787 8.368,7.668 8.132,7.891 7.835,8.067 7.672,8.615 7.123,8.882 6.813,9.164 6.768,9.4 6.531,9.578 6.368,9.962 
			6.442,10.541 6.205,11.104 5.953,11.916 6.354,12.063 6.843,12.39 7.538,13.025 8.236,12.908 8.518,13.025 8.709,12.922 
			9.583,12.761 9.791,13.057 9.955,13.132 10.458,13.115 10.65,13.411 10.473,14.064 10.976,14.729 11.214,15.1 11.155,15.32 
			11.303,15.646 10.961,16.076 10.917,16.477 11.317,17.082 11.466,17.703 11.585,17.718 11.775,18.089 11.746,18.206 
			11.984,18.356 12.266,18.503 12.725,18.311 13.184,18.089 13.687,17.674 13.984,17.438 14.043,17.171 14.487,16.95 14.592,16.756 
			14.533,16.387 14.769,16.149 15.154,15.915 15.54,15.573 15.511,14.891 15.422,14.313 15.555,13.811 16.147,13.057 16.682,12.272 
			16.992,11.442 16.992,10.85 16.636,11.104 16.502,11.267 16.296,11.296 16.147,11.428 16.028,11.267 15.688,10.954 15.407,10.732 
			15.198,10.391 14.978,10.228 14.783,9.711 14.606,9.593 14.414,9.297 13.88,8.395 13.584,8.334 		"/>
		<polygon fill="#0076BC" points="11.307,7.606 11.385,7.521 11.349,7.438 11.332,7.328 11.153,7.394 11.007,7.416 10.989,7.494 
			11.197,7.569 		"/>
		<polygon fill="#0076BC" points="13.564,7.853 13.641,7.804 13.709,7.772 13.753,7.734 13.719,7.679 13.694,7.65 13.713,7.591 
			13.753,7.541 13.753,7.494 13.616,7.606 13.501,7.672 13.376,7.716 13.332,7.804 13.376,7.853 		"/>
		<polygon fill="#0076BC" points="10.358,6.981 10.358,6.937 10.375,6.854 10.316,6.817 10.28,6.876 10.298,6.933 		"/>
	</g>
</g>
</svg>
