<?xml version="1.0" encoding="iso-8859-1"?>
<!-- Generator: Adobe Illustrator 16.0.0, SVG Export Plug-In . SVG Version: 6.00 Build 0)  -->
<!DOCTYPE svg PUBLIC "-//W3C//DTD SVG 1.1//EN" "http://www.w3.org/Graphics/SVG/1.1/DTD/svg11.dtd">
<svg version="1.1" id="Layer_1" xmlns="http://www.w3.org/2000/svg" xmlns:xlink="http://www.w3.org/1999/xlink" x="0px" y="0px"
	 width="14px" height="11px" viewBox="0 0 14 11" style="enable-background:new 0 0 14 11;" xml:space="preserve">
<g>
	<path style="fill:#5dc8f2;" d="M12.664,3.391c-1.219,0.844-2.445,1.688-3.656,2.539C8.5,6.281,7.641,7,7.008,7H7H6.992
		c-0.633,0-1.492-0.719-2-1.07C3.781,5.078,2.555,4.234,1.344,3.391C0.789,3.016,0,2.133,0,1.422C0,0.656,0.414,0,1.25,0h11.5
		C13.43,0,14,0.563,14,1.25C14,2.125,13.352,2.914,12.664,3.391z M14,9.75c0,0.688-0.563,1.25-1.25,1.25H1.25
		C0.563,11,0,10.438,0,9.75V3.547c0.234,0.258,0.5,0.484,0.789,0.68c1.297,0.883,2.609,1.766,3.883,2.695
		C5.328,7.406,6.141,8,6.992,8H7h0.008c0.852,0,1.664-0.594,2.32-1.078C10.602,6,11.914,5.109,13.219,4.227
		C13.5,4.031,13.766,3.805,14,3.547V9.75z"/>
</g>
</svg>
